<?xml version="1.0" encoding="UTF-8"?>
<svg id="Ebene_2" data-name="Ebene 2" xmlns="http://www.w3.org/2000/svg" xmlns:xlink="http://www.w3.org/1999/xlink" viewBox="0 0 955.89 253.5">
  <defs>
    <style>
      .cls-1 {
        fill: #fff;
      }

      .cls-2 {
        fill: url(#BEYONDER);
      }

      .cls-3 {
        fill: #005575;
      }
    </style>
    <radialGradient id="BEYONDER" cx="419.42" cy="126.77" fx="419.42" fy="126.77" r="34.7" gradientUnits="userSpaceOnUse">
      <stop offset="0" stop-color="#ff2"/>
      <stop offset=".17" stop-color="#fffa20"/>
      <stop offset=".34" stop-color="#ffee1b"/>
      <stop offset=".53" stop-color="#ffd912"/>
      <stop offset=".71" stop-color="#ffbb07"/>
      <stop offset=".8" stop-color="#fa0"/>
      <stop offset=".85" stop-color="#f99900"/>
      <stop offset=".95" stop-color="#ec6d00"/>
      <stop offset="1" stop-color="#e55300"/>
    </radialGradient>
  </defs>
  <g id="standard">
    <rect class="cls-3" width="955.89" height="253.5"/>
    <path id="B" class="cls-1" d="m63.33,72.24h53.42c17.39,0,31.68,16.21,31.68,33.6,0,6.99-2.33,13.35-6.06,18.63,6.21,6.37,10.09,13.3,10.09,23.08,0,19.72-15.99,35.71-35.71,35.71h-53.42v-111.02Zm23.76,43.28h29.66c4.35,0,7.92-5.34,7.92-9.68s-3.57-9.84-7.92-9.84h-29.66v19.52Zm0,43.98h29.66c6.68,0,11.96-5.43,11.96-11.96s-5.28-11.96-11.96-11.96h-29.66v23.91Z"/>
    <path id="E" class="cls-1" d="m170.28,72.24h69.46v23.76h-45.7v19.88h38.94v23.76h-38.94v19.88h51.7v23.76h-75.45v-111.02Z"/>
    <path id="D" class="cls-1" d="m640.26,183.26h-37.42v-111.02h37.42c30.59,0,55.43,25,55.43,55.59s-24.84,55.43-55.43,55.43Zm-13.66-23.76h13.66c17.55,0,31.68-14.28,31.68-31.68s-14.13-31.83-31.68-31.83h-13.66v63.51Z"/>
    <path id="E-2" data-name="E" class="cls-1" d="m713.51,72.24h69.46v23.76h-45.7v19.88h38.94v23.76h-38.94v19.88h51.7v23.76h-75.45v-111.02Z"/>
    <path id="R" class="cls-1" d="m865.43,143.62c11.03-6.8,18.52-19.08,18.52-32.99,0-21.32-17.28-38.61-38.61-38.61-.68,0-1.29.02-1.84.06h-36.55v111.02h23.76v-33.81h9.97l24.24,33.97h27.64l-27.13-39.65m0,0s-.05.03,0,0m-34.72-47.78h14.75c9.16,0,16.62,5.53,16.62,14.69s-7.45,14.69-16.62,14.69h-14.75v-29.39Z"/>
    <path id="Y" class="cls-1" d="m366.28,72.24h-25.63l-26.71,40.68-26.86-40.68h-29.5l44.41,64.44v46.58h23.76v-46.58l19.88-28.35c3.47-13.92,10.75-26.34,20.66-36.09Z"/>
    <path id="N" class="cls-1" d="m556.81,72.24v62.89l-45.65-62.89h-19.72v29.21c2.82,7.95,4.37,16.48,4.37,25.36s-1.55,17.33-4.37,25.23v31.23h23.76v-64.91l47.2,64.91h18.17v-111.02h-23.76Z"/>
    <path id="Tounge" class="cls-2" d="m404.88,111.76l-21.15,19.62c.48,3.9,1.61,7.77,3.44,11.46,8.97,18.07,30.93,25.45,49,16.48.23-.11.45-.24.68-.36h0c-28.76-3.86-38.47-27.86-31.97-47.2Z"/>
    <path id="O" class="cls-1" d="m476.59,98.44c-15.49-31.19-53.63-44.02-84.82-28.53-31.35,15.57-44.33,53.78-28.84,84.97,15.57,31.35,53.94,44.25,85.28,28.68,31.19-15.49,43.94-53.78,28.37-85.13Zm-39.74,60.53c-.23.12-.45.24-.68.36-18.07,8.97-40.02,1.59-49-16.48-1.83-3.69-2.95-7.56-3.44-11.46-1.84-14.86,5.76-30.12,20.07-37.23,17.76-8.82,39.72-1.44,48.54,16.32,8.86,17.83,1.77,39.45-15.49,48.49Z"/>
  </g>
</svg>