<svg width="120" height="120" viewBox="0 0 120 120" fill="none" xmlns="http://www.w3.org/2000/svg">
<mask id="mask0_24_503" style="mask-type:alpha" maskUnits="userSpaceOnUse" x="-30" y="-30" width="180" height="180">
<path d="M105 -30C129.853 -30 150 -9.85281 150 15C150 29.945 142.712 43.1851 131.499 51.3691C133.684 53.9749 135 57.3335 135 61C135 64.0916 134.064 66.9644 132.461 69.3516C143.127 77.5803 150 90.4865 150 105C150 129.853 129.853 150 105 150C90.2784 150 77.209 142.93 68.999 132.001C66.4921 133.884 63.3766 135 60 135C56.6232 135 53.507 133.884 51 132.001C42.79 142.93 29.7214 150 15 150C-9.85281 150 -30 129.853 -30 105C-30 90.4868 -23.1279 77.5803 -12.4619 69.3516C-14.0648 66.9645 -15 64.0914 -15 61C-15 57.3337 -13.6845 53.9748 -11.5 51.3691C-22.7127 43.1851 -30 29.9447 -30 15C-30 -9.85281 -9.85281 -30 15 -30C29.7211 -30 42.79 -22.9304 51 -12.002C53.5069 -13.8848 56.6234 -15 60 -15C63.3764 -15 66.4922 -13.8845 68.999 -12.002C77.209 -22.9306 90.2787 -30 105 -30ZM60 15C60 39.8528 39.8528 60 15 60C14.9886 60 14.9772 59.999 14.9658 59.999V60C14.9772 60 14.9886 60 15 60C39.8528 60 60 80.1472 60 105C60 80.1472 80.1472 60 105 60C105.011 60 105.022 60 105.033 60V59.999C105.022 59.999 105.011 60 105 60C80.1472 60 60 39.8528 60 15Z" fill="#EB0000"/>
</mask>
<g mask="url(#mask0_24_503)">
<circle cx="60" cy="60" r="59.95" fill="white" stroke="white" stroke-width="0.1"/>
</g>
</svg>
